<svg width="44" height="47" viewBox="0 0 44 47" fill="none" xmlns="http://www.w3.org/2000/svg">
<g clip-path="url(#clip0_7_806)">
<path fill-rule="evenodd" clip-rule="evenodd" d="M23.5018 47H2.42846C1.08687 47 0 45.8383 0 44.4058V2.59402C0 1.16115 1.08704 0 2.42846 0H41.5717C42.9128 0 44 1.16115 44 2.59402V44.4058C44 45.8385 42.9126 47 41.5717 47H30.3594V28.799H36.0786L36.935 21.7058H30.3594V17.1772C30.3594 15.1235 30.8932 13.724 33.6502 13.724L37.1665 13.7224V7.37811C36.5584 7.29167 34.4711 7.09854 32.0426 7.09854C26.9728 7.09854 23.5018 10.4042 23.5018 16.4747V21.7058H17.7679V28.799H23.5018V47Z" fill="#4460A0"/>
</g>
<defs>
<clipPath id="clip0_7_806">
<rect width="44" height="47" fill="white"/>
</clipPath>
</defs>
</svg>
