<svg width="35" height="31" viewBox="0 0 35 31" fill="none" xmlns="http://www.w3.org/2000/svg">
<path d="M35 30.5H32.0833V15.0052C32.0736 14.7989 32.0163 14.5973 31.9154 14.415C31.8145 14.2327 31.6726 14.0743 31.5 13.9513L18.4333 3.61391C18.1648 3.40834 17.8316 3.2964 17.4883 3.2964C17.145 3.2964 16.8119 3.40834 16.5433 3.61391L3.5 13.9513C3.34029 14.0809 3.21169 14.2422 3.12308 14.4241C3.03446 14.6061 2.98792 14.8043 2.98667 15.0052V30.5H0V15.0052C0.000858443 14.3879 0.143517 13.7784 0.417791 13.2202C0.692065 12.6621 1.09119 12.169 1.58667 11.7762L14.7 1.46123C15.4853 0.839795 16.471 0.5 17.4883 0.5C18.5056 0.5 19.4913 0.839795 20.2767 1.46123L33.4133 11.7762C33.9088 12.169 34.3079 12.6621 34.5822 13.2202C34.8565 13.7784 34.9991 14.3879 35 15.0052V30.5Z" fill="black"/>
<path d="M25 24.8198H21.9262C21.8627 23.8229 21.3619 22.8888 20.533 22.2208C19.704 21.5528 18.614 21.205 17.5 21.2531C16.386 21.205 15.296 21.5528 14.467 22.2208C13.6381 22.8888 13.1373 23.8229 13.0738 24.8198H10.123C10.2054 23.1181 11.0189 21.5107 12.3935 20.3333C13.7681 19.1559 15.5976 18.4994 17.5 18.501C19.4235 18.4707 21.2842 19.1144 22.6853 20.2948C24.0863 21.4752 24.9169 23.0989 25 24.8198ZM10 24.8198H13.0738V30.5H10V24.8198ZM21.9262 24.8198H25V30.5H21.9262V24.8198Z" fill="black"/>
</svg>
