<svg width="89" height="101" viewBox="0 0 89 101" fill="none" xmlns="http://www.w3.org/2000/svg">
<path d="M74.4543 45.8125V92.6875H51.1572L48.4163 95.8125H40.1938L37.453 92.6875H14.1559V45.8125H74.4543Z" fill="#274C77"/>
<path d="M32.7799 37.2969C31.2313 36.7344 29.5731 36.4375 27.8601 36.4375V77.0625C36.946 77.0625 44.3051 85.4531 44.3051 95.8125C44.3051 85.4531 51.6643 77.0625 60.7501 77.0625V36.4375C59.0371 36.4375 57.3789 36.7344 55.8303 37.2969C54.8436 38.3906 53.7336 39.3594 52.5276 40.1562V42.6875C53.2814 42.6875 53.8981 43.3906 53.8981 44.25V47.375C53.8981 48.2344 53.2814 48.9375 52.5276 48.9375H36.0826C35.3289 48.9375 34.7122 48.2344 34.7122 47.375V44.25C34.7122 43.3906 35.3289 42.6875 36.0826 42.6875V40.1562C34.8766 39.3594 33.7803 38.4062 32.7936 37.2969" fill="#A3CEF1"/>
<path d="M52.5276 48.9375C52.5276 54.1094 48.8412 58.3125 44.3051 58.3125C39.769 58.3125 36.0826 54.1094 36.0826 48.9375" fill="#6096BA"/>
<path d="M60.7501 23.9375C60.7501 13.5781 53.391 5.1875 44.3051 5.1875C35.2193 5.1875 27.8601 13.5781 27.8601 23.9375C27.8601 30.875 31.1765 36.9219 36.0826 40.1562V42.6875H52.5276V40.1562C57.4337 36.9062 60.7501 30.875 60.7501 23.9375Z" fill="#F5DD90"/>
<path d="M52.5276 42.6875H36.0826C35.3257 42.6875 34.7122 43.3871 34.7122 44.25V47.375C34.7122 48.2379 35.3257 48.9375 36.0826 48.9375H52.5276C53.2845 48.9375 53.898 48.2379 53.898 47.375V44.25C53.898 43.3871 53.2845 42.6875 52.5276 42.6875Z" fill="#274C77"/>
<path d="M53.8021 30.2969C54.2681 29.375 55.0629 28.8281 55.9126 28.7344C56.3785 27.2344 56.6389 25.625 56.6389 23.9375C56.6389 22.25 56.3785 20.6406 55.9126 19.1406C55.0629 19.0469 54.2544 18.5 53.8021 17.5781C53.3362 16.6563 53.3362 15.5625 53.6925 14.6563C51.8836 12.2031 49.3894 10.4688 46.5389 9.875C46.0456 10.6875 45.2233 11.2188 44.3051 11.2188C43.387 11.2188 42.5647 10.6875 42.0714 9.875C39.2209 10.4844 36.7267 12.2188 34.9178 14.6563C35.2741 15.5625 35.2604 16.6406 34.8081 17.5781C34.3422 18.5 33.5474 19.0469 32.6977 19.1406C32.2318 20.6406 31.9714 22.25 31.9714 23.9375C31.9714 25.625 32.2318 27.2344 32.6977 28.7344C33.5474 28.8281 34.3559 29.375 34.8081 30.2969C35.2741 31.2188 35.2741 32.3125 34.9178 33.2188C36.7267 35.6719 39.2209 37.4062 42.0714 38C42.5647 37.1875 43.387 36.6562 44.3051 36.6562C45.2233 36.6562 46.0456 37.1875 46.5389 38C49.3894 37.3906 51.8836 35.6562 53.6925 33.2188C53.3362 32.3125 53.3499 31.2344 53.8021 30.2969Z" fill="#A3CEF1"/>
<path d="M44.3051 31.75C48.0894 31.75 51.1572 28.2522 51.1572 23.9375C51.1572 19.6228 48.0894 16.125 44.3051 16.125C40.5208 16.125 37.453 19.6228 37.453 23.9375C37.453 28.2522 40.5208 31.75 44.3051 31.75Z" fill="#FFBC0A"/>
<path d="M45.6755 56.75H42.9347V95.8125H45.6755V56.75Z" fill="#6096BA"/>
<path d="M44.3051 95.8125C44.3051 85.4531 36.946 77.0625 27.8601 77.0625V38L19.6376 41.125V83.3125C19.6376 83.3125 36.2882 78.625 44.3051 95.8125Z" fill="#6096BA"/>
<path d="M68.9726 83.3125V41.125L60.7501 38V77.0625C51.6643 77.0625 44.3051 85.4531 44.3051 95.8125C52.3221 78.625 68.9726 83.3125 68.9726 83.3125Z" fill="#6096BA"/>
</svg>
