<svg width="89" height="101" viewBox="0 0 89 101" fill="none" xmlns="http://www.w3.org/2000/svg">
<path d="M79.2991 17.6875V48.9375H77.9286C77.9286 46.3438 73.6392 44.25 68.3357 44.25C64.8412 44.25 61.7851 45.1562 60.1132 46.5312C59.2361 47.2187 58.7428 48.0469 58.7428 48.9375C58.7428 48.0469 58.2494 47.2187 57.3724 46.5312C55.7005 45.1562 52.6444 44.25 49.1499 44.25C43.8463 44.25 39.5569 46.3438 39.5569 48.9375H34.9797C36.9394 47.9375 38.1865 45.7031 38.1865 43.25V42.0625L41.2014 41.375C41.8318 41.2344 42.2978 40.5938 42.2978 39.8438V34.875C42.2978 30.5625 40.7629 26.6562 38.2824 23.8281L38.1865 23.7187V17.6875H39.0362C43.49 17.6875 47.8206 18.9375 51.9044 20.9688C53.3433 21.6875 55.2345 22.1875 57.3724 22.3125C57.8246 22.3594 58.2768 22.375 58.7428 22.375C59.2087 22.375 59.661 22.3594 60.1132 22.3125C62.2511 22.1875 64.1422 21.6875 65.5812 20.9688C69.665 18.9375 73.9956 17.6875 78.4494 17.6875H79.2991Z" fill="#A3CEF1"/>
<path d="M34.8701 49L30.7588 51.0156C29.3747 51.6875 27.8124 51.6875 26.442 51.0156L22.3308 49C20.3162 48.0156 19.0143 45.75 19.0143 43.25V34.875C19.0143 29.7031 22.7008 25.5 27.2369 25.5H29.9777C34.5138 25.5 38.2002 29.7031 38.2002 34.875V43.25C38.2002 45.75 36.8983 48.0156 34.8838 49H34.8701Z" fill="#DDA15E"/>
<path d="M46.6009 58.3125C44.1067 55.4219 40.6395 53.625 36.8161 53.625H32.7048C32.7048 56.2188 30.8685 58.3125 28.5936 58.3125C26.3187 58.3125 24.4823 56.2188 24.4823 53.625H20.3711C12.8063 53.625 6.66687 60.625 6.66687 69.25V80.1875H36.8161L42.2977 58.3125H46.6009Z" fill="#274C77"/>
<path d="M21.7415 73.9375H24.4823C25.9898 73.9375 27.2232 75.3438 27.2232 77.0625V80.1875H21.7415V73.9375Z" fill="#DDA15E"/>
<path d="M14.8894 37.5781C14.492 37.8437 14.0123 38 13.519 38C12.0115 38 10.7781 36.5938 10.7781 34.875C10.7781 33.1562 12.0115 31.75 13.519 31.75C14.0945 31.75 14.629 31.9531 15.0813 32.3125" fill="#274C77"/>
<path d="M42.2978 37.5781C42.6952 37.8437 43.1748 38 43.6682 38C45.1756 38 46.409 36.5938 46.409 34.875C46.409 33.1562 45.1756 31.75 43.6682 31.75C43.0926 31.75 42.5581 31.9531 42.1059 32.3125" fill="#274C77"/>
<path d="M24.4823 50.0469L26.4283 51C27.8124 51.6875 29.3747 51.6875 30.7588 51L32.7048 50.0469V53.625C32.7048 56.2188 30.8685 58.3125 28.5936 58.3125C26.3187 58.3125 24.4823 56.2188 24.4823 53.625V50.0469Z" fill="#BC6C25"/>
<path d="M36.8161 80.1875L42.2978 58.3125H72.447L66.9653 80.1875" fill="#8B8C89"/>
<path d="M37.3505 30.7812C36.5694 30.4219 35.6649 30.1875 34.5275 30.1875C28.5936 30.1875 28.5936 36.4375 22.646 36.4375C21.0974 36.4375 19.9462 36.0156 19.0006 35.3906V34.875C19.0006 29.7031 22.6871 25.5 27.2232 25.5H29.964C33.2119 25.5 36.0212 27.6562 37.3505 30.7812Z" fill="#274C77"/>
<path d="M38.1865 42.0625V34.875C38.1865 29.7031 34.5001 25.5 29.964 25.5H27.2232C22.6871 25.5 19.0007 29.7031 19.0007 34.875V41.125H16.2598C15.5061 41.125 14.8894 40.4219 14.8894 39.5625V34.875C14.8894 26.25 21.0289 19.25 28.5936 19.25C32.3759 19.25 35.802 21 38.2824 23.8281C40.7629 26.6563 42.2978 30.5625 42.2978 34.875V39.8438C42.2978 40.5938 41.8318 41.2344 41.2014 41.375L38.1865 42.0625Z" fill="#E7ECEF"/>
<path d="M54.6315 67.6875C55.3853 67.6875 56.0019 68.3906 56.0019 69.25C56.0019 70.1094 55.3853 70.8125 54.6315 70.8125V67.6875Z" fill="#A3CEF1"/>
<path d="M28.5936 80.1875H25.8527V77.0625C25.8527 76.2031 25.2361 75.5 24.4823 75.5H14.8894C14.1357 75.5 13.519 74.7969 13.519 73.9375V67.6875C13.519 67.2656 13.6697 66.875 13.9164 66.5781L15.6842 64.5625C16.2187 63.9531 17.0821 63.9531 17.6165 64.5625C18.151 65.1719 18.151 66.1562 17.6165 66.7656L16.2461 68.3281V72.375H24.4686C26.7435 72.375 28.5799 74.4688 28.5799 77.0625V80.1875H28.5936Z" fill="#6096BA"/>
<path d="M72.447 80.1875H3.92606V83.3125H72.447V80.1875Z" fill="#A3CEF1"/>
<path d="M28.5936 44.2501C28.4428 43.4063 28.9225 42.5782 29.6625 42.4063L40.9274 39.8438V35.3751C40.9274 27.8907 35.9801 21.3438 29.4432 20.8438C22.2623 20.297 16.2598 26.797 16.2598 34.8751V39.5626H19.0007V42.6876H16.2598C14.7524 42.6876 13.519 41.2813 13.519 39.5626V35.3751C13.519 26.4376 19.3296 18.5938 27.1409 17.7657C36.1035 16.797 43.6682 24.8438 43.6682 34.8751V39.8438C43.6682 41.3282 42.75 42.6095 41.4618 42.9063L30.197 45.4688C29.4569 45.6407 28.7306 45.0938 28.5799 44.2501H28.5936Z" fill="#6096BA"/>
<path d="M60.1132 22.3125V48.9375H57.3724V22.3125C57.8246 22.3594 58.2769 22.375 58.7428 22.375C59.2087 22.375 59.661 22.3594 60.1132 22.3125Z" fill="#274C77"/>
<path d="M84.7807 20.8125H79.2991V48.9375H84.7807V20.8125Z" fill="#274C77"/>
<path d="M58.7428 48.9375C58.7428 46.3438 63.0322 44.25 68.3357 44.25C73.6392 44.25 77.9287 46.3438 77.9287 48.9375" fill="#6096BA"/>
<path d="M39.5569 48.9375C39.5569 46.3438 43.8463 44.25 49.1498 44.25C54.4534 44.25 58.7428 46.3438 58.7428 48.9375" fill="#6096BA"/>
<path d="M72.447 27.0625H66.9653V30.1875H72.447V27.0625Z" fill="#6096BA"/>
<path d="M75.1878 34.875H64.2245V38H75.1878V34.875Z" fill="#6096BA"/>
</svg>
