<svg width="89" height="101" viewBox="0 0 89 101" fill="none" xmlns="http://www.w3.org/2000/svg">
<path d="M83.9096 9.42847H80.9833V34.428H83.9096V9.42847Z" fill="#0455BF"/>
<path d="M82.4464 9.42847H80.9833V34.428H82.4464V9.42847Z" fill="#004787"/>
<path d="M86.8359 59.4276H78.057C77.6689 59.4276 77.2968 59.2394 77.0224 58.9045C76.748 58.5697 76.5938 58.1155 76.5938 57.6419V36.2137C76.5938 35.7401 76.748 35.2859 77.0224 34.951C77.2968 34.6161 77.6689 34.428 78.057 34.428H86.8359C87.2239 34.428 87.5961 34.6161 87.8705 34.951C88.1449 35.2859 88.299 35.7401 88.299 36.2137V57.6419C88.299 58.1155 88.1449 58.5697 87.8705 58.9045C87.5961 59.2394 87.2239 59.4276 86.8359 59.4276Z" fill="#F74E0C"/>
<path d="M88.299 55.8562C85.9707 55.8562 83.7378 54.7274 82.0914 52.7181C80.445 50.7088 79.5201 47.9836 79.5201 45.1421V34.428H78.057C77.6689 34.428 77.2968 34.6161 77.0224 34.951C76.748 35.2859 76.5938 35.7401 76.5938 36.2137V57.6419C76.5938 58.1155 76.748 58.5697 77.0224 58.9045C77.2968 59.2394 77.6689 59.4276 78.057 59.4276H86.8359C87.2239 59.4276 87.5961 59.2394 87.8705 58.9045C88.1449 58.5697 88.299 58.1155 88.299 57.6419V55.8562Z" fill="#CC2600"/>
<path d="M72.2043 43.3563H22.4571C22.0691 43.3563 21.6969 43.1681 21.4225 42.8332C21.1481 42.4984 20.994 42.0442 20.994 41.5706V9.42826C20.994 8.95467 21.1481 8.50047 21.4225 8.16559C21.6969 7.83071 22.0691 7.64258 22.4571 7.64258H72.2043C72.5924 7.64258 72.9646 7.83071 73.2389 8.16559C73.5133 8.50047 73.6675 8.95467 73.6675 9.42826V41.5706C73.6675 42.0442 73.5133 42.4984 73.2389 42.8332C72.9646 43.1681 72.5924 43.3563 72.2043 43.3563Z" fill="#0455BF"/>
<path d="M50.257 39.7849C43.2721 39.7849 36.5732 36.3985 31.6341 30.3706C26.6951 24.3428 23.9203 16.1673 23.9203 7.64258H22.4571C22.0691 7.64258 21.6969 7.83071 21.4225 8.16559C21.1481 8.50047 20.994 8.95467 20.994 9.42826V41.5706C20.994 42.0442 21.1481 42.4984 21.4225 42.8332C21.6969 43.1681 22.0691 43.3563 22.4571 43.3563H72.2043C72.5924 43.3563 72.9646 43.1681 73.2389 42.8332C73.5133 42.4984 73.6675 42.0442 73.6675 41.5706V39.7849H50.257Z" fill="#004787"/>
<path d="M85.3727 11.2141H9.28878C8.90072 11.2141 8.52856 11.026 8.25417 10.6911C7.97978 10.3562 7.82562 9.90201 7.82562 9.42842V2.28568C7.82562 1.81209 7.97978 1.3579 8.25417 1.02302C8.52856 0.688134 8.90072 0.5 9.28878 0.5H85.3727C85.7608 0.5 86.1329 0.688134 86.4073 1.02302C86.6817 1.3579 86.8359 1.81209 86.8359 2.28568V9.42842C86.8359 9.90201 86.6817 10.3562 86.4073 10.6911C86.1329 11.026 85.7608 11.2141 85.3727 11.2141Z" fill="#0455BF"/>
<path d="M12.2151 7.64274C11.827 7.64274 11.4549 7.4546 11.1805 7.11972C10.9061 6.78484 10.7519 6.33065 10.7519 5.85705V0.5H9.28878C8.90072 0.5 8.52856 0.688134 8.25417 1.02302C7.97978 1.3579 7.82562 1.81209 7.82562 2.28568V9.42842C7.82562 9.90201 7.97978 10.3562 8.25417 10.6911C8.52856 11.026 8.90072 11.2141 9.28878 11.2141H85.3727C85.7608 11.2141 86.1329 11.026 86.4073 10.6911C86.6817 10.3562 86.8359 9.90201 86.8359 9.42842V7.64274H12.2151Z" fill="#004787"/>
<path d="M82.4464 93.3556H15.1414C13.9146 93.3535 12.7018 93.0384 11.5807 92.4304C10.4596 91.8224 9.45516 90.9349 8.63176 89.8251C7.80836 88.7153 7.18424 87.4075 6.79948 85.9859C6.41472 84.5642 6.27782 83.0601 6.39758 81.5701C6.67892 78.8854 7.75818 76.4204 9.43046 74.6428C11.1027 72.8652 13.2516 71.8989 15.4691 71.9274H82.4464C82.8345 71.9274 83.2066 72.1155 83.481 72.4504C83.7554 72.7853 83.9096 73.2395 83.9096 73.7131V91.5699C83.9096 92.0435 83.7554 92.4977 83.481 92.8326C83.2066 93.1674 82.8345 93.3556 82.4464 93.3556Z" fill="#FDFEFF"/>
<path d="M60.3236 61.2132H6.36248C5.97442 61.2132 5.60226 61.0251 5.32787 60.6902C5.05348 60.3553 4.89932 59.9011 4.89932 59.4275V48.7134C4.89932 48.2398 5.05348 47.7856 5.32787 47.4507C5.60226 47.1159 5.97442 46.9277 6.36248 46.9277H60.4991C61.3657 46.9274 62.2214 47.1618 63.0047 47.6142C63.7879 48.0666 64.4791 48.7256 65.0283 49.5436C65.5774 50.3616 65.9709 51.3183 66.1803 52.3445C66.3897 53.3706 66.4098 54.4408 66.2391 55.4776C65.9519 57.1231 65.2046 58.5953 64.1252 59.6418C63.0459 60.6883 61.7018 61.2439 60.3236 61.2132Z" fill="#FDFEFF"/>
<path d="M83.9095 100.498H15.6095C11.8411 100.561 8.19296 98.8811 5.39752 95.7963C2.60208 92.7116 0.866402 88.4503 0.539021 83.8683C0.396701 81.4224 0.671708 78.9671 1.34666 76.6576C2.02161 74.3481 3.08182 72.2345 4.46027 70.4506C5.82984 68.6671 7.48393 67.2443 9.32078 66.2699C11.1576 65.2955 13.1384 64.7901 15.1413 64.7847H83.9095C85.0736 64.7847 86.1901 65.3491 87.0133 66.3537C87.8365 67.3584 88.2989 68.7209 88.2989 70.1417C88.2924 71.56 87.8278 72.918 87.0061 73.9209C86.1843 74.9238 85.0716 75.4908 83.9095 75.4988H15.4632C13.9718 75.4671 12.5227 76.1039 11.3901 77.2886C10.2576 78.4733 9.52036 80.1237 9.31794 81.9272C9.2346 82.9214 9.32449 83.9259 9.5817 84.8747C9.8389 85.8235 10.2576 86.6951 10.8104 87.4325C11.3588 88.1702 12.0272 88.7603 12.7728 89.1652C13.5185 89.5701 14.3251 89.7809 15.1413 89.7842H83.9095C85.0736 89.7842 86.1901 90.3487 87.0133 91.3533C87.8365 92.3579 88.2989 93.7205 88.2989 95.1413C88.2924 96.5596 87.8278 97.9176 87.0061 98.9205C86.1843 99.9234 85.0716 100.49 83.9095 100.498Z" fill="#FEBC00"/>
<path d="M86.8359 96.9268H18.5359C14.7676 96.9893 11.1194 95.3095 8.32394 92.2248C5.5285 89.1401 3.79282 84.8788 3.46544 80.2968C3.21835 76.0456 4.23665 71.8284 6.33322 68.4202C4.3791 70.1906 2.8233 72.5351 1.81033 75.2359C0.797365 77.9366 0.360095 80.9059 0.539134 83.8681C0.866515 88.4502 2.6022 92.7114 5.39763 95.7962C8.19307 98.8809 11.8413 100.561 15.6096 100.498H83.9096C84.8511 100.497 85.7671 100.124 86.5211 99.4357C87.2752 98.7475 87.8269 97.7805 88.0942 96.6786C87.6869 96.8356 87.263 96.9193 86.8359 96.9268Z" fill="#EDAA03"/>
<path d="M60.148 68.3561H6.36248C5.19832 68.3561 4.08185 67.7917 3.25867 66.7871C2.43548 65.7824 1.97302 64.4198 1.97302 62.9991C1.97955 61.5807 2.44411 60.2228 3.26588 59.2198C4.08765 58.2169 5.20034 57.65 6.36248 57.642H60.3236C61.0194 57.6647 61.7006 57.3958 62.2537 56.8802C62.8069 56.3646 63.1987 55.6333 63.364 54.8081C63.454 54.2878 63.4476 53.7496 63.3454 53.2327C63.2431 52.7158 63.0476 52.2332 62.7731 51.8203C62.4985 51.4074 62.1519 51.0745 61.7585 50.846C61.3651 50.6174 60.9348 50.499 60.4991 50.4993H6.36248C5.19832 50.4993 4.08185 49.9349 3.25867 48.9302C2.43548 47.9256 1.97302 46.563 1.97302 45.1422C1.97955 43.7239 2.44411 42.3659 3.26588 41.363C4.08765 40.3601 5.20034 39.7931 6.36248 39.7852H60.4991C62.1652 39.787 63.8117 40.2225 65.3289 41.0625C66.8461 41.9026 68.1991 43.1278 69.2976 44.6565C70.396 46.1852 71.2148 47.9823 71.6991 49.9277C72.1834 51.8732 72.3223 53.9223 72.1063 55.9385C71.6861 59.4262 70.2415 62.6087 68.0415 64.8932C65.8415 67.1776 63.0362 68.4083 60.148 68.3561Z" fill="#F74E0C"/>
<path d="M69.2913 44.6474C68.6684 43.7893 67.9629 43.0261 67.1902 42.3743C68.844 45.2925 69.553 48.8552 69.18 52.3741C68.7585 55.8606 67.3133 59.0413 65.1135 61.3243C62.9137 63.6074 60.109 64.8371 57.2217 64.7846H3.4362C3.00934 64.7772 2.58576 64.6923 2.17935 64.5328C2.44731 65.6341 2.99893 66.6008 3.75242 67.2894C4.50591 67.9781 5.42116 68.3521 6.36251 68.356H60.148C63.0362 68.4082 65.8416 67.1775 68.0415 64.893C70.2415 62.6086 71.6861 59.4261 72.1064 55.9383C72.321 53.9203 72.181 51.8696 71.6956 49.9227C71.2102 47.9759 70.3905 46.1775 69.2913 44.6474Z" fill="#CC2600"/>
<path d="M59.036 52.2847H42.9413V55.856H59.036V52.2847Z" fill="#DFEAEF"/>
<path d="M83.9096 80.856H54.6465V84.4273H83.9096V80.856Z" fill="#DFEAEF"/>
<path d="M51.7202 80.856H48.7939V84.4273H51.7202V80.856Z" fill="#DFEAEF"/>
<path d="M40.015 52.2847H37.0887V55.856H40.015V52.2847Z" fill="#DFEAEF"/>
</svg>
