<svg width="61" height="61" viewBox="0 0 61 61" fill="none" xmlns="http://www.w3.org/2000/svg">
<g clip-path="url(#clip0_120_104)">
<path d="M58.1243 53.2972H19.6648C18.5843 53.2972 17.7082 52.4212 17.7082 51.3406V42.4837C17.7082 41.4033 18.5842 40.5272 19.6648 40.5272H47.3543V27.3035C47.3543 26.223 48.2303 25.3469 49.3109 25.3469H58.1244C59.2049 25.3469 60.081 26.2229 60.081 27.3035V51.3406C60.0808 52.4212 59.2049 53.2972 58.1243 53.2972Z" fill="#E65C7B"/>
<path d="M58.1243 25.3469H49.3107C48.2303 25.3469 47.3542 26.2229 47.3542 27.3035V40.5273H38.8945V53.2972H58.1243C59.2048 53.2972 60.0809 52.4212 60.0809 51.3406V27.3035C60.0809 26.2229 59.2049 25.3469 58.1243 25.3469Z" fill="#834496"/>
<path d="M49.3107 44.4404H10.851C9.7705 44.4404 8.89441 43.5644 8.89441 42.4838V33.6269C8.89441 32.5464 9.77039 31.6703 10.851 31.6703H38.5405V18.4466C38.5405 17.3661 39.4165 16.49 40.4971 16.49H49.3106C50.3911 16.49 51.2672 17.366 51.2672 18.4466V42.4837C51.2672 43.5644 50.3912 44.4404 49.3107 44.4404Z" fill="#62D2A2"/>
<path d="M49.3107 16.49H40.4972C39.4167 16.49 38.5406 17.366 38.5406 18.4466V31.6703H30.0805V44.4403H49.3107C50.3912 44.4403 51.2673 43.5643 51.2673 42.4837V18.4466C51.2672 17.366 50.3912 16.49 49.3107 16.49Z" fill="#1FAB89"/>
<path d="M40.497 35.5833H2.03743C0.956848 35.5833 0.0808716 34.7072 0.0808716 33.6268V9.58962C0.0808716 8.50915 0.956848 7.63306 2.03743 7.63306H40.4971C41.5776 7.63306 42.4536 8.50903 42.4536 9.58962V33.6268C42.4535 34.7072 41.5777 35.5833 40.497 35.5833Z" fill="#FEE856"/>
<path d="M40.497 7.63306H21.2673V35.5833H40.4972C41.5777 35.5833 42.4538 34.7074 42.4538 33.6268V9.58962C42.4535 8.50903 41.5777 7.63306 40.497 7.63306Z" fill="#FFCE3E"/>
</g>
<defs>
<clipPath id="clip0_120_104">
<rect width="60" height="60" fill="white" transform="translate(0.0808716 0.465088)"/>
</clipPath>
</defs>
</svg>
