<svg width="60" height="60" viewBox="0 0 60 60" fill="none" xmlns="http://www.w3.org/2000/svg">
<path d="M15.8455 37.1111C16.1386 34.685 17.1336 33.3267 19.0086 31.9344C21.6915 30.0485 25.0427 31.1152 25.0427 31.1152V24.7869C25.8576 24.7659 26.6726 24.8142 27.4783 24.9311V33.0751C27.4783 33.0751 24.1281 32.0084 21.4453 33.8952C19.5713 35.2867 18.5742 36.6461 18.2822 39.0721C18.273 40.3895 18.5203 42.1115 19.6588 43.6004C19.3772 43.4561 19.0903 43.2916 18.798 43.1071C16.2901 41.423 15.8333 38.8966 15.8455 37.1111ZM41.316 13.0855C39.4704 11.0632 38.7724 9.02129 38.5202 7.58691H40.8418C40.8418 7.58691 40.3789 11.3479 43.7526 15.0465L43.7994 15.0962C42.8901 14.5242 42.0563 13.8491 41.316 13.0855ZM52.5 18.8191V26.7993C52.5 26.7993 49.5375 26.6834 47.3451 26.1256C44.2836 25.3454 42.3159 24.149 42.3159 24.149C42.3159 24.149 40.9568 23.2959 40.8469 23.2364V39.7156C40.8469 40.6332 40.5956 42.9247 39.8295 44.8359C38.8294 47.3362 37.2861 48.9772 37.0022 49.3126C37.0022 49.3126 35.1251 51.5309 31.8135 53.0249C28.8285 54.3725 26.2076 54.3384 25.4243 54.3725C25.4243 54.3725 20.8939 54.5519 16.8172 51.9026C15.9356 51.3185 15.1127 50.6572 14.3591 49.9269L14.3795 49.9415C18.4572 52.5909 22.9866 52.4114 22.9866 52.4114C23.7711 52.3773 26.3918 52.4114 29.3758 51.0639C32.6844 49.5701 34.5645 47.3517 34.5645 47.3517C34.8454 47.0163 36.3958 45.3751 37.3918 42.8741C38.1559 40.9638 38.4092 38.6712 38.4092 37.7538V21.2765C38.5191 21.3369 39.8773 22.19 39.8773 22.19C39.8773 22.19 41.8461 23.3876 44.9074 24.1666C47.1008 24.7244 50.0625 24.8405 50.0625 24.8405V18.5871C51.0758 18.8142 51.9396 18.8757 52.5 18.8191Z" fill="#EE1D52"/>
<path d="M50.0642 18.5871V24.8384C50.0642 24.8384 47.1024 24.7224 44.9091 24.1647C41.8477 23.3846 39.879 22.1881 39.879 22.1881C39.879 22.1881 38.5207 21.335 38.4109 21.2744V37.7557C38.4109 38.6733 38.1596 40.9657 37.3935 42.8759C36.3934 45.3772 34.8501 47.0182 34.5662 47.3536C34.5662 47.3536 32.6882 49.5719 29.3775 51.0659C26.3934 52.4135 23.7727 52.3794 22.9882 52.4135C22.9882 52.4135 18.4589 52.5929 14.3812 49.9436L14.3608 49.9289C13.9303 49.5119 13.525 49.0719 13.1471 48.6106C11.8458 47.024 11.0482 45.1479 10.8478 44.6126V44.6058C10.5253 43.6756 9.84766 41.4416 9.94025 39.2778C10.1041 35.4603 11.447 33.1171 11.8021 32.5301C12.7424 30.9294 13.9655 29.4971 15.4169 28.2972C16.6976 27.2617 18.1492 26.4378 19.7122 25.8594C21.402 25.1802 23.2114 24.8161 25.0434 24.7869V31.1152C25.0434 31.1152 21.6921 30.0524 19.0102 31.9344C17.1352 33.3267 16.1402 34.685 15.8472 37.1111C15.835 38.8966 16.2918 41.423 18.7976 43.1081C19.0899 43.2933 19.3768 43.4577 19.6584 43.6014C20.0961 44.1704 20.6289 44.6664 21.2353 45.0689C23.6831 46.6184 25.7342 46.7266 28.3571 45.7203C30.1059 45.0476 31.4224 43.5312 32.0329 41.8511C32.4165 40.802 32.4114 39.7458 32.4114 38.6538V7.58691H38.5157C38.7681 9.02129 39.4659 11.0632 41.3115 13.0855C42.0517 13.8491 42.8857 14.5242 43.7949 15.0962C44.0636 15.3741 45.4371 16.748 47.2001 17.5915C48.1117 18.0275 49.0729 18.3615 50.0642 18.5871Z" fill="white"/>
<path d="M8.41736 42.6689V42.6738L8.56882 43.0844C8.55142 43.0366 8.49513 42.8913 8.41736 42.6689Z" fill="#69C9D0"/>
<path d="M19.7115 25.8591C18.1485 26.4377 16.6968 27.2616 15.4161 28.297C13.9643 29.4996 12.7415 30.9349 11.8023 32.5386C11.4473 33.1238 10.1043 35.4689 9.94052 39.2864C9.84794 41.4501 10.5255 43.6842 10.848 44.6144V44.6211C11.0515 45.1517 11.8461 47.0277 13.1473 48.6192C13.5253 49.0804 13.9306 49.5207 14.3611 49.9375C12.9817 49.0231 11.7515 47.9177 10.7107 46.6572C9.42062 45.0844 8.62502 43.2278 8.41748 42.6797C8.41724 42.6758 8.41724 42.6719 8.41748 42.6681V42.6612C8.09395 41.7319 7.41434 39.4969 7.50895 37.3304C7.67275 33.5129 9.01572 31.1697 9.37079 30.5826C10.3097 28.9786 11.5325 27.5432 12.9845 26.341C14.265 25.3051 15.7167 24.4812 17.28 23.9031C18.255 23.5154 19.2709 23.2294 20.3098 23.05C21.8754 22.7881 23.4746 22.7652 25.0478 22.9827V24.7866C23.214 24.8153 21.4028 25.1794 19.7115 25.8591Z" fill="#69C9D0"/>
<path d="M38.5196 7.58691H32.4151V38.6548C32.4151 39.7468 32.4151 40.8 32.0368 41.8521C31.4203 43.5313 30.1087 45.0474 28.3608 45.7204C25.7371 46.7306 23.6861 46.6185 21.2392 45.069C20.6317 44.6681 20.0975 44.1739 19.6582 43.6063C21.7428 44.6721 23.6086 44.6535 25.9201 43.7644C27.6671 43.0914 28.9805 41.5751 29.595 39.8951C29.9795 38.8459 29.9745 37.7899 29.9745 36.6986V5.625H38.4035C38.4035 5.625 38.309 6.39728 38.5196 7.58691ZM50.0628 16.8582V18.5871C49.0734 18.3612 48.1141 18.0271 47.204 17.5915C45.441 16.748 44.0673 15.3741 43.7988 15.0962C44.1105 15.2923 44.4339 15.4707 44.7673 15.6305C46.911 16.6564 49.022 16.9625 50.0628 16.8582Z" fill="#69C9D0"/>
</svg>
