<svg width="60" height="44" viewBox="0 0 60 44" fill="none" xmlns="http://www.w3.org/2000/svg">
<path fill-rule="evenodd" clip-rule="evenodd" d="M23.805 29.8374L23.8031 12.8597L40.0144 21.3778L23.805 29.8374ZM59.4 9.91771C59.4 9.91771 58.8131 5.75401 57.015 3.92047C54.7331 1.51289 52.1756 1.50153 51.0037 1.3618C42.6075 0.749991 30.0131 0.75 30.0131 0.75H29.9869C29.9869 0.75 17.3925 0.749991 8.99626 1.3618C7.82251 1.50153 5.26688 1.51289 2.98313 3.92047C1.18501 5.75401 0.599995 9.91771 0.599995 9.91771C0.599995 9.91771 0 14.8084 0 19.6972V24.282C0 29.1727 0.599995 34.0615 0.599995 34.0615C0.599995 34.0615 1.18501 38.2252 2.98313 40.0588C5.26688 42.4664 8.26499 42.3908 9.59999 42.642C14.4 43.1065 30 43.25 30 43.25C30 43.25 42.6075 43.2311 51.0037 42.6193C52.1756 42.4777 54.7331 42.4664 57.015 40.0588C58.8131 38.2252 59.4 34.0615 59.4 34.0615C59.4 34.0615 60 29.1727 60 24.282V19.6972C60 14.8084 59.4 9.91771 59.4 9.91771Z" fill="#CE1312"/>
</svg>
